<svg version="1.1" viewBox="0.0 0.0 200.0 200.0" fill="none" stroke="none" stroke-linecap="square" stroke-miterlimit="10" xmlns:xlink="http://www.w3.org/1999/xlink" xmlns="http://www.w3.org/2000/svg"><clipPath id="p.0"><path d="m0 0l200.0 0l0 200.0l-200.0 0l0 -200.0z" clip-rule="nonzero"/></clipPath><g clip-path="url(#p.0)"><path fill="#000000" fill-opacity="0.0" d="m0 0l200.0 0l0 200.0l-200.0 0z" fill-rule="evenodd"/><path fill="#000000" d="m0 0l200.0 0l0 200.0l-200.0 0z" fill-rule="evenodd"/><defs><linearGradient id="p.1" gradientUnits="userSpaceOnUse" gradientTransform="matrix(7.854008334112749 0.0 0.0 7.854008334112749 0.0 0.0)" spreadMethod="pad" x1="2.196581058597738" y1="3.4487764858847916" x2="2.1965526661416663" y2="11.30278481994622"><stop offset="0.0" stop-color="#ffccd1"/><stop offset="0.5" stop-color="#ffe9cc"/><stop offset="1.0" stop-color="#ffffcc"/></linearGradient></defs><path fill="url(#p.1)" d="m39.223793 37.42239c5.4251404 0 8.951485 0.64650726 10.579025 1.939518c1.6275444 1.2839737 2.4413147 3.051693 2.4413147 5.3031616c0 2.278595 -0.7685623 4.1322174 -2.3056831 5.5608597c-1.5280838 1.4196014 -4.679188 2.1294022 -9.453312 2.1294022l-11.230045 0l0 -14.932941zm2.7668228 24.25077c4.746998 0 8.029209 0.74144745 9.846634 2.2243423c1.817421 1.4738503 2.7261314 3.4857063 2.7261314 6.0355644c0 2.6312332 -0.88158417 4.7063828 -2.6447563 6.2254486c-1.7631721 1.5190659 -4.936878 2.278595 -9.521126 2.278595l-13.142406 0l0 -16.76395zm-14.566507 -33.568596c-3.336464 0 -5.6105003 0.20344543 -6.822117 0.6103382c-1.2025719 0.40689087 -2.061554 1.2161541 -2.5769424 2.4277878c-0.5153885 1.202591 -0.77308273 3.567089 -0.77308273 7.093487l0 39.42784c0 3.2822647 0.18083954 5.515648 0.5425129 6.700157c0.37072182 1.1754608 1.170929 2.034462 2.4006271 2.5769806c1.2387428 0.54252625 3.648407 0.81378937 7.229002 0.81378937l15.461657 0c5.642147 0 10.03651 -0.51992035 13.183094 -1.5597534c3.1465836 -1.0488815 5.723526 -2.983879 7.7308273 -5.8049927c2.0073051 -2.8211212 3.010952 -6.035568 3.010952 -9.643349c0 -7.4868126 -3.8925362 -12.342388 -11.677616 -14.566734c5.967655 -2.7397385 8.9514885 -7.107048 8.9514885 -13.101925c0 -3.1466331 -0.8906326 -5.913498 -2.6718864 -8.300598c-1.772213 -2.3871002 -3.9287071 -4.0960464 -6.4694824 -5.1268406c-2.5317345 -1.0307922 -6.184662 -1.5461884 -10.958786 -1.5461884z" fill-rule="evenodd"/><defs><linearGradient id="p.2" gradientUnits="userSpaceOnUse" gradientTransform="matrix(7.854008334112749 0.0 0.0 7.854008334112749 0.0 0.0)" spreadMethod="pad" x1="2.196581058597738" y1="3.4487764858847916" x2="2.1965526661416663" y2="11.30278481994622"><stop offset="0.0" stop-color="#ffccd1"/><stop offset="0.5" stop-color="#ffe9cc"/><stop offset="1.0" stop-color="#ffffcc"/></linearGradient></defs><path fill="url(#p.2)" d="m83.411575 27.087332c-1.5190353 0 -2.8029861 0.4611435 -3.8518524 1.3834324c-1.0398178 0.9222889 -1.6546631 1.9214344 -1.8445435 2.9974384c-0.18988037 1.0669613 -0.28482056 2.9431858 -0.28482056 5.6286755l0 41.66575c0 2.712616 0.10849762 4.6385727 0.32550812 5.77787c0.21700287 1.1392975 0.8589783 2.1294022 1.9259262 2.9703064c1.0759888 0.84091187 2.3463745 1.2613678 3.8111572 1.2613678c1.4647903 0 2.7125778 -0.434021 3.7433548 -1.3020554c1.030777 -0.86803436 1.6546631 -1.8490982 1.8716736 -2.943184c0.21700287 -1.1031342 0.32550812 -3.0245667 0.32550812 -5.764305l0 -17.659119l26.16275 0l0 17.659119c0 2.7397385 0.10849762 4.6792603 0.32550812 5.8185577c0.21700287 1.1392975 0.8589783 2.124878 1.9259262 2.956749c1.0759811 0.8228226 2.3192444 1.2342377 3.729782 1.2342377c1.519043 0 2.7939453 -0.434021 3.8247223 -1.3020554c1.030777 -0.86803436 1.6546707 -1.8490982 1.8716736 -2.943184c0.2170105 -1.1031342 0.32550812 -3.0245667 0.32550812 -5.764305l0 -41.66575c0 -2.7397423 -0.10849762 -4.6792603 -0.32550812 -5.8185577c-0.21700287 -1.1392975 -0.8680191 -2.1203613 -1.9530487 -2.9431858c-1.0850296 -0.8318691 -2.3599396 -1.2478027 -3.8247223 -1.2478027c-1.4647903 0 -2.7216187 0.4611435 -3.7704773 1.3834324c-1.0398178 0.9222889 -1.6546707 1.9214344 -1.8445511 2.9974384c-0.18987274 1.0669613 -0.28481293 2.9431858 -0.28481293 5.6286755l0 14.648113l-26.16275 0l0 -14.648113c0 -2.7397423 -0.10850525 -4.6792603 -0.32550812 -5.8185577c-0.2170105 -1.1392975 -0.86802673 -2.1203613 -1.9530563 -2.9431858c-1.0850296 -0.8318691 -2.3328094 -1.2478027 -3.7433472 -1.2478027z" fill-rule="evenodd"/><defs><linearGradient id="p.3" gradientUnits="userSpaceOnUse" gradientTransform="matrix(7.854008334112749 0.0 0.0 7.854008334112749 0.0 0.0)" spreadMethod="pad" x1="2.196581058597738" y1="3.4487764858847916" x2="2.1965526661416663" y2="11.30278481994622"><stop offset="0.0" stop-color="#ffccd1"/><stop offset="0.5" stop-color="#ffe9cc"/><stop offset="1.0" stop-color="#ffffcc"/></linearGradient></defs><path fill="url(#p.3)" d="m162.14395 27.087332c-6.917053 0 -12.382889 1.5145416 -16.397491 4.5436287c-4.0146027 3.0200405 -6.0219116 7.0663586 -6.0219116 12.138948c0 3.4450188 0.86802673 6.320389 2.6040802 8.62611c1.7360382 2.3057213 3.770462 4.06892 6.1032715 5.2895966c2.3328247 1.2206764 6.392639 2.50465 12.179459 3.8519135c5.7958527 1.3382225 9.49852 2.7533035 11.107971 4.2452393c1.6184998 1.4919357 2.4277496 3.2822647 2.4277496 5.3709793c0 2.6854858 -1.1754456 4.814888 -3.5263367 6.388199c-2.341858 1.5733185 -5.221695 2.3599777 -8.639542 2.3599777c-5.723526 0 -9.697449 -2.5634232 -11.921753 -7.690262c-1.030777 -2.4142227 -1.9123535 -4.0689163 -2.6447601 -4.964081c-0.73239136 -0.8951645 -1.8445435 -1.3427429 -3.3364563 -1.3427429c-1.6275482 0 -2.952179 0.5379944 -3.9739227 1.614006c-1.0126953 1.0669556 -1.5190277 2.278595 -1.5190277 3.634903c0 4.0960464 1.9711304 8.0564575 5.913391 11.881248c3.9513245 3.8247833 9.914459 5.737175 17.88942 5.737175c7.296814 0 13.051987 -1.7631989 17.265503 -5.2895966c4.22258 -3.5263977 6.3338623 -8.070023 6.3338623 -13.630882c0 -2.793991 -0.64649963 -5.4659195 -1.9394836 -8.015778c-1.2839508 -2.5498543 -3.3771515 -4.6114426 -6.279602 -6.184757c-2.9024506 -1.5733185 -7.3601074 -3.0788193 -13.372986 -4.5165024c-6.0038147 -1.4376869 -9.738129 -2.7849503 -11.202911 -4.0417976c-1.464798 -1.2658844 -2.1971893 -2.7397385 -2.1971893 -4.4215584c0 -2.115841 1.0036469 -3.811222 3.0109558 -5.086151c2.007309 -1.274929 4.4757385 -1.9123917 7.405319 -1.9123917c5.0453796 0 8.598846 2.0615845 10.6604 6.184757c0.94940186 1.953083 1.8038635 3.3455582 2.563385 4.1774254c0.7595215 0.8228264 1.8716736 1.2342415 3.3364563 1.2342415c1.6004181 0 2.9160156 -0.59677505 3.9467926 -1.7903252c1.030777 -1.1935501 1.5461731 -2.4684792 1.5461731 -3.8247871c0 -3.2551346 -1.7902985 -6.4967117 -5.3708954 -9.72472c-3.580597 -3.2280102 -8.897232 -4.842016 -15.949921 -4.842016z" fill-rule="evenodd"/><defs><linearGradient id="p.4" gradientUnits="userSpaceOnUse" gradientTransform="matrix(7.854009149988177 0.0 0.0 7.854009149988177 0.0 0.0)" spreadMethod="pad" x1="1.7930555380393673" y1="14.079446769772117" x2="1.7930269824112268" y2="21.933455919708383"><stop offset="0.0" stop-color="#ccffd5"/><stop offset="0.5" stop-color="#ccccff"/><stop offset="1.0" stop-color="#ffccfc"/></linearGradient></defs><path fill="url(#p.4)" d="m45.169525 110.580734c-9.9011345 0 -17.55982 2.8211212 -22.976059 8.463356c-5.407192 5.642235 -8.110791 13.101921 -8.110791 22.379066c0 9.33139 2.6990767 16.804642 8.097228 22.419754c5.3981533 5.6151123 12.952852 8.422668 22.664103 8.422668c5.9406815 0 11.356918 -1.1121674 16.24871 -3.3365173c4.900837 -2.22435 7.7897987 -3.9604187 8.666882 -5.2082214c0.8861313 -1.2478027 1.3291931 -3.5399628 1.3291931 -6.87648l0 -8.666794c0 -3.0110016 -0.4837494 -5.1268463 -1.4512558 -6.347519c-0.9584732 -1.2206726 -3.2280426 -1.8310089 -6.8087273 -1.8310089l-13.061359 0c-4.0147057 0 -6.0220604 1.5597534 -6.0220604 4.6792603c0 0.8408966 0.32551575 1.8264923 0.97655106 2.9567413c0.6510315 1.1212158 2.916088 1.6818237 6.795162 1.6818237l8.259987 0l0 9.11438c-5.181141 2.8211212 -10.294468 4.231674 -15.339977 4.231674c-5.642292 0 -10.072933 -1.858139 -13.291933 -5.574417c-3.2099552 -3.716278 -4.8149357 -9.100815 -4.8149357 -16.15361c0 -6.1576385 1.5597668 -11.153366 4.679302 -14.987198c3.1195374 -3.842865 7.5140114 -5.764305 13.18343 -5.764305c5.805046 0 10.131706 2.278595 12.97998 6.835785c1.2478142 1.9259567 2.242447 3.2234879 2.983902 3.892601c0.7504959 0.66007996 1.8445969 0.9901123 3.2822952 0.9901123c1.5733299 0 2.9206047 -0.5334778 4.041828 -1.6004486c1.1302719 -1.076004 1.695404 -2.3192825 1.695404 -3.7298431c0 -1.7360687 -0.8499603 -3.9604187 -2.549881 -6.673027c-1.6908798 -2.712616 -4.362831 -4.9414825 -8.01585 -6.686592c-3.643982 -1.754158 -8.124355 -2.6312408 -13.441128 -2.6312408z" fill-rule="evenodd"/><defs><linearGradient id="p.5" gradientUnits="userSpaceOnUse" gradientTransform="matrix(7.854009149988177 0.0 0.0 7.854009149988177 0.0 0.0)" spreadMethod="pad" x1="1.7930555380393673" y1="14.079446769772117" x2="1.7930269824112268" y2="21.933455919708383"><stop offset="0.0" stop-color="#ccffd5"/><stop offset="0.5" stop-color="#ccccff"/><stop offset="1.0" stop-color="#ffccfc"/></linearGradient></defs><path fill="url(#p.5)" d="m104.006676 110.580734c-6.9172287 0 -12.383202 1.5145416 -16.397903 4.5436325c-4.0147095 3.0200424 -6.022064 7.0663605 -6.022064 12.138947c0 3.445015 0.868042 6.320381 2.6041336 8.626106c1.7360916 2.305725 3.7705688 4.068924 6.1034393 5.2895966c2.3328705 1.2206879 6.3927917 2.504654 12.179749 3.8519135c5.796013 1.3382263 9.498764 2.7533112 11.108261 4.2452393c1.6185455 1.4919434 2.4278107 3.2822723 2.4278107 5.370987c0 2.6854858 -1.1754761 4.8148804 -3.5264282 6.388199c-2.3419113 1.5733185 -5.2218323 2.35997 -8.639755 2.35997c-5.723671 0 -9.697685 -2.5634155 -11.92205 -7.690262c-1.0308075 -2.414215 -1.9124146 -4.0689087 -2.6448288 -4.964081c-0.7324066 -0.89515686 -1.8445892 -1.3427429 -3.3365402 -1.3427429c-1.6275864 0 -2.9522552 0.5379944 -3.974022 1.6140137c-1.0127182 1.0669556 -1.5190735 2.278595 -1.5190735 3.634903c0 4.096039 1.9711838 8.0564575 5.9135513 11.881241c3.951416 3.8247833 9.914696 5.7371826 17.889854 5.7371826c7.2970047 0 13.052322 -1.7631989 17.265953 -5.2895966c4.222679 -3.5263977 6.334015 -8.070023 6.334015 -13.63089c0 -2.793991 -0.6465149 -5.465912 -1.939537 -8.015778c-1.2839813 -2.5498505 -3.3772354 -4.611435 -6.2797623 -6.1847534c-2.9025269 -1.5733185 -7.3602905 -3.0788116 -13.373314 -4.51651c-6.003975 -1.4376831 -9.738373 -2.7849426 -11.203201 -4.041794c-1.4648209 -1.2658844 -2.197235 -2.7397308 -2.197235 -4.4215546c0 -2.115837 1.0036774 -3.811226 3.011032 -5.086151c2.007347 -1.2749252 4.475853 -1.9123917 7.4055023 -1.9123917c5.0455093 0 8.599068 2.0615845 10.660675 6.184761c0.94942474 1.9530792 1.8039017 3.3455505 2.563446 4.177429c0.75953674 0.82281494 1.8717194 1.2342377 3.3365402 1.2342377c1.6004639 0 2.916092 -0.5967865 3.9468918 -1.790329c1.0308075 -1.1935501 1.5462036 -2.468483 1.5462036 -3.8247833c0 -3.2551422 -1.7903366 -6.4967117 -5.371025 -9.724724c-3.5806808 -3.228012 -8.897453 -4.842018 -15.950317 -4.842018z" fill-rule="evenodd"/><defs><linearGradient id="p.6" gradientUnits="userSpaceOnUse" gradientTransform="matrix(7.854009149988177 0.0 0.0 7.854009149988177 0.0 0.0)" spreadMethod="pad" x1="1.7930555380393673" y1="14.079446769772117" x2="1.7930269824112268" y2="21.933455919708383"><stop offset="0.0" stop-color="#ccffd5"/><stop offset="0.5" stop-color="#ccccff"/><stop offset="1.0" stop-color="#ffccfc"/></linearGradient></defs><path fill="url(#p.6)" d="m161.17555 123.31646l9.073776 24.535591l-17.903412 0l8.829636 -24.535591zm0.08137512 -12.735725c-1.6275787 0 -3.1014404 0.40689087 -4.4216003 1.2206802c-1.3111115 0.81378174 -2.2876587 1.8310089 -2.9296417 3.0516891c-0.6329498 1.2206726 -1.627594 3.5806503 -2.9839172 7.079918l-15.339966 38.736137c-1.1121826 2.793991 -1.6682739 4.8826904 -1.6682739 6.2661285c0 1.302063 0.5560913 2.5182037 1.6682739 3.648468c1.1121826 1.1212158 2.4820557 1.6818237 4.1096497 1.6818237c1.7632141 0 3.038147 -0.50183105 3.8248138 -1.5055084c0.78666687 -1.0036621 1.7632141 -3.0381165 2.929657 -6.1033783l2.8075714 -7.4868164l24.169632 0l2.9296417 7.324066c1.247818 3.1466217 2.2650604 5.2308197 3.0517273 6.2525635c0.78666687 1.0127106 2.0751648 1.5190735 3.865509 1.5190735c1.681839 0 3.0833588 -0.58322144 4.20459 -1.7496338c1.1302643 -1.1664276 1.695404 -2.4277954 1.695404 -3.7841034c0 -1.3020477 -0.58322144 -3.4314575 -1.7496643 -6.388199l-17.659271 -43.578148c-0.8409271 -2.0887146 -1.9892731 -3.6394272 -3.445053 -4.65213c-1.4467468 -1.0217514 -3.1331024 -1.5326309 -5.059082 -1.5326309z" fill-rule="evenodd"/></g></svg>