<svg version="1.1" viewBox="0.0 0.0 100.0 600.0" fill="none" stroke="none" stroke-linecap="square" stroke-miterlimit="10" xmlns:xlink="http://www.w3.org/1999/xlink" xmlns="http://www.w3.org/2000/svg"><clipPath id="p.0"><path d="m0 0l100.0 0l0 600.0l-100.0 0l0 -600.0z" clip-rule="nonzero"/></clipPath><g clip-path="url(#p.0)"><path fill="#000000" fill-opacity="0.0" d="m0 0l100.0 0l0 600.0l-100.0 0z" fill-rule="evenodd"/><path fill="#000000" d="m0 0l100.0 0l0 600.0l-100.0 0z" fill-rule="evenodd"/><defs><linearGradient id="p.1" gradientUnits="userSpaceOnUse" gradientTransform="matrix(8.354727381748738 0.0 0.0 8.354727381748738 0.0 0.0)" spreadMethod="pad" x1="2.5130697928513386" y1="2.6267995618461697" x2="2.511368329301652" y2="10.981526770341006"><stop offset="0.0" stop-color="#ffccd1"/><stop offset="1.0" stop-color="#fce5cd"/></linearGradient></defs><path fill="url(#p.1)" d="m46.70208 32.859665c6.3471794 0 10.472843 0.75639725 12.376999 2.2691956c1.9041519 1.5022163 2.8562279 3.5704117 2.8562279 6.204582c0 2.6659088 -0.89918137 4.8346024 -2.697548 6.5060844c-1.7877884 1.6609039 -5.4744415 2.491356 -11.059959 2.491356l-13.138657 0l0 -17.471218zm3.2370605 28.372875c5.5537834 0 9.393826 0.86748123 11.52013 2.602436c2.1263046 1.7243729 3.189457 4.0782013 3.189457 7.0614853c0 3.0784836 -1.0314178 5.506363 -3.0942497 7.283638c-2.0628319 1.7772751 -5.7759323 2.6659088 -11.1392975 2.6659088l-15.376038 0l0 -19.613468zm-17.042171 -39.274536c-3.9035149 0 -6.564039 0.23802757 -7.981577 0.7140827c-1.4069557 0.47605515 -2.4119263 1.4228745 -3.0149097 2.8404617c-0.60298157 1.4070053 -0.90447235 4.173414 -0.90447235 8.299227l0 46.12973c0 3.8401718 0.21157265 6.453186 0.63471794 7.839035c0.43372536 1.375267 1.3699341 2.3802795 2.8086262 3.0150146c1.4492741 0.63474274 4.2684784 0.9521103 8.457615 0.9521103l18.089458 0c6.601063 0 11.742279 -0.6082916 15.423645 -1.8248749c3.6813583 -1.2271652 6.696266 -3.4910736 9.0447235 -6.7917175c2.3484573 -3.3006516 3.5226822 -7.0614853 3.5226822 -11.282501c0 -8.759415 -4.5541 -14.440338 -13.6623 -17.042774c6.9818954 -3.2054367 10.472847 -8.315094 10.472847 -15.328968c0 -3.6814919 -1.0419922 -6.918667 -3.1259842 -9.711523c-2.07341 -2.7928562 -4.5964127 -4.792288 -7.569008 -5.998293c-2.9620209 -1.206007 -7.2357864 -1.8090096 -12.821304 -1.8090096z" fill-rule="evenodd"/><defs><linearGradient id="p.2" gradientUnits="userSpaceOnUse" gradientTransform="matrix(8.495992176224185 0.0 0.0 8.495992176224185 0.0 0.0)" spreadMethod="pad" x1="2.4312189173420755" y1="12.72099921948749" x2="2.429488724997443" y2="21.216991219536517"><stop offset="0.0" stop-color="#fce5cd"/><stop offset="1.0" stop-color="#fff2cc"/></linearGradient></defs><path fill="url(#p.2)" d="m27.65338 108.08946c-1.7772102 0 -3.279375 0.5395279 -4.5064964 1.6185837c-1.2165432 1.0790634 -1.9358902 2.2480392 -2.158041 3.5069427c-0.2221508 1.2483215 -0.33322716 3.4434662 -0.33322716 6.5854263l0 48.74803c0 3.173706 0.12694359 5.4270325 0.38083076 6.7599792c0.25388718 1.332962 1.0049706 2.4913635 2.2532482 3.4752045c1.2588577 0.98384094 2.7451534 1.475769 4.458893 1.475769c1.7137375 0 3.1735878 -0.50779724 4.379553 -1.5233765c1.2059631 -1.0155792 1.9358902 -2.1634064 2.1897774 -3.4434662c0.25388718 -1.2906342 0.38082886 -3.5386658 0.38082886 -6.74411l0 -20.660782l30.609268 0l0 20.660782c0 3.2054443 0.12693787 5.47464 0.38082886 6.8075867c0.25388336 1.332962 1.0049667 2.4860687 2.2532501 3.4593353c1.2588577 0.96269226 2.713417 1.4440308 4.3636856 1.4440308c1.7772064 0 3.2687912 -0.50779724 4.4747543 -1.5233765c1.2059708 -1.0155792 1.9358902 -2.1634064 2.1897812 -3.4434662c0.25388336 -1.2906342 0.38082886 -3.5386658 0.38082886 -6.74411l0 -48.74803c0 -3.2054367 -0.1269455 -5.4746323 -0.38082886 -6.8075867c-0.253891 -1.3329544 -1.0155487 -2.480774 -2.2849884 -3.4434662c-1.2694321 -0.9732666 -2.7610168 -1.4598999 -4.4747543 -1.4598999c-1.7137375 0 -3.1841736 0.5395279 -4.411293 1.6185837c-1.2165375 1.0790634 -1.9358902 2.2480392 -2.158043 3.5069427c-0.22214508 1.2483215 -0.33322144 3.4434662 -0.33322144 6.5854263l0 17.137985l-30.609268 0l0 -17.137985c0 -3.2054367 -0.12694168 -5.4746323 -0.38082886 -6.8075867c-0.25388718 -1.3329544 -1.0155487 -2.480774 -2.2849846 -3.4434662c-1.2694359 -0.9732666 -2.729288 -1.4598999 -4.379553 -1.4598999z" fill-rule="evenodd"/><defs><linearGradient id="p.3" gradientUnits="userSpaceOnUse" gradientTransform="matrix(8.495953559843604 0.0 0.0 8.495953559843604 0.0 0.0)" spreadMethod="pad" x1="2.620641184499929" y1="23.13449341600821" x2="2.618910682599705" y2="31.630446799612805"><stop offset="0.0" stop-color="#fff2cc"/><stop offset="1.0" stop-color="#d9ead3"/></linearGradient></defs><path fill="url(#p.3)" d="m49.82746 196.56088c-8.092651 0 -14.487431 1.7719727 -19.184343 5.3159485c-4.696913 3.5333862 -7.045368 8.267487 -7.045368 14.202301c0 4.030594 1.0155487 7.3947144 3.046646 10.092361c2.0310955 2.697647 4.4112873 4.760559 7.1405735 6.1887207c2.7292862 1.4281616 7.4790916 2.9303894 14.249416 4.506653c6.780903 1.5656891 11.11285 3.2213135 12.995846 4.9668427c1.8935738 1.7455292 2.8403625 3.8401794 2.8403625 6.2839203c0 3.1419678 -1.3752213 5.633316 -4.1256638 7.4740753c-2.7398682 1.8407288 -6.1091614 2.7611084 -10.107883 2.7611084c-6.696274 0 -11.345581 -2.9991455 -13.947922 -8.997437c-1.2059631 -2.8246002 -2.237381 -4.760544 -3.0942497 -5.8078766c-0.85687065 -1.0473175 -2.158041 -1.5709686 -3.9035149 -1.5709686c-1.9041538 0 -3.4539223 0.6294403 -4.6493073 1.8883514c-1.1848068 1.2483063 -1.7772102 2.6658936 -1.7772102 4.2527466c0 4.7922974 2.306141 9.425888 6.9184227 13.900803c4.622864 4.4749146 11.599468 6.712372 20.929821 6.712372c8.536953 0 15.270252 -2.0628967 20.199894 -6.18869c4.9402237 -4.125824 7.4103317 -9.441772 7.4103317 -15.947861c0 -3.2689056 -0.75637054 -6.3950043 -2.2691193 -9.378281c-1.5021667 -2.9832764 -3.9511185 -5.395294 -7.346855 -7.236038c-3.3957443 -1.840744 -8.611008 -3.6021423 -15.645798 -5.28421c-7.024208 -1.6820526 -11.393185 -3.2583313 -13.106922 -4.7288055c-1.7137375 -1.4810638 -2.5706062 -3.2054443 -2.5706062 -5.1731415c0 -2.4754791 1.1742287 -4.4590454 3.5226822 -5.9506836c2.3484573 -1.4916382 5.2364235 -2.2374573 8.663898 -2.2374573c5.902878 0 10.06028 2.4120178 12.472206 7.236038c1.1107559 2.2850647 2.1104355 3.9142303 2.9990425 4.887497c0.8886032 0.96269226 2.1897736 1.4440308 3.903511 1.4440308c1.8724213 0 3.4116135 -0.69821167 4.6175766 -2.094635c1.2059631 -1.3964386 1.8089447 -2.8880768 1.8089447 -4.4749146c0 -3.8084412 -2.0945663 -7.601013 -6.2837067 -11.377716c-4.1891403 -3.776703 -10.409374 -5.6650543 -18.660706 -5.6650543z" fill-rule="evenodd"/><defs><linearGradient id="p.4" gradientUnits="userSpaceOnUse" gradientTransform="matrix(8.496087509753425 0.0 0.0 8.496087509753425 0.0 0.0)" spreadMethod="pad" x1="1.9607526393453711" y1="38.71615960966583" x2="1.959022315571685" y2="47.212246943219306"><stop offset="0.0" stop-color="#d9ead3"/><stop offset="1.0" stop-color="#c9daf8"/></linearGradient></defs><path fill="url(#p.4)" d="m53.028053 328.94946c-11.583599 0 -20.543701 3.3006287 -26.880299 9.901947c-6.326021 6.601288 -9.489031 15.328949 -9.489031 26.183014c0 10.917511 3.1577206 19.661072 9.473164 26.230621c6.315443 6.56958 15.153887 9.85434 26.515337 9.85434c6.950157 0 13.286758 -1.3012085 19.009796 -3.903656c5.7336197 -2.602417 9.113487 -4.6335754 10.139618 -6.093506c1.036705 -1.4598999 1.5550613 -4.1416626 1.5550613 -8.045319l0 -10.139984c0 -3.5227966 -0.5659561 -5.998291 -1.697876 -7.4264526c-1.1213303 -1.4281616 -3.7765656 -2.1422424 -7.965706 -2.1422424l-15.28083 0c-4.696911 0 -7.045368 1.8248901 -7.045368 5.47464c0 0.9838562 0.38082886 2.136963 1.1424904 3.45932c0.7616615 1.3117981 3.4116096 1.9677124 7.9498405 1.9677124l9.663578 0l0 10.663635c-6.061554 3.3006287 -12.04377 4.9509583 -17.946644 4.9509583c-6.6010666 0 -11.784592 -2.1739807 -15.550587 -6.521942c-3.755413 -4.347992 -5.6331196 -10.647766 -5.6331196 -18.899384c0 -7.204315 1.8248119 -13.049194 5.4744396 -17.534698c3.6496277 -4.496063 8.790844 -6.74411 15.423645 -6.74411c6.791477 0 11.853352 2.6658936 15.185619 7.997711c1.4598541 2.2533264 2.6235046 3.7714233 3.4909515 4.5542603c0.87802887 0.77227783 2.158043 1.1584167 3.840042 1.1584167c1.840683 0 3.4169006 -0.624176 4.7286453 -1.8724976c1.3223343 -1.2588806 1.9834976 -2.713501 1.9834976 -4.3638306c0 -2.0311584 -0.9943924 -4.633606 -2.9831772 -7.807312c-1.9782028 -3.173706 -5.104187 -5.7814026 -9.377953 -7.8231506c-4.263191 -2.0523376 -9.504902 -3.0784912 -15.725136 -3.0784912z" fill-rule="evenodd"/><defs><linearGradient id="p.5" gradientUnits="userSpaceOnUse" gradientTransform="matrix(8.49595355981288 0.0 0.0 8.49595355981288 0.0 0.0)" spreadMethod="pad" x1="2.6202740260692767" y1="49.130667381792215" x2="2.6185438258604514" y2="57.62662076542754"><stop offset="0.0" stop-color="#c9daf8"/><stop offset="1.0" stop-color="#d9d2e9"/></linearGradient></defs><path fill="url(#p.5)" d="m49.824345 417.42316c-8.092651 0 -14.487434 1.7720032 -19.184345 5.3159485c-4.696911 3.5333862 -7.045368 8.267487 -7.045368 14.202301c0 4.030609 1.0155487 7.394745 3.046646 10.092377c2.0310974 2.6976624 4.411289 4.760559 7.1405754 6.1887207c2.7292862 1.4281616 7.4790916 2.9303894 14.249413 4.506653c6.780903 1.5657043 11.112854 3.2213135 12.99585 4.9668274c1.8935738 1.7455444 2.8403625 3.8401794 2.8403625 6.2839355c0 3.1419678 -1.3752251 5.6333313 -4.1256676 7.47406c-2.7398643 1.8407593 -6.1091576 2.761139 -10.10788 2.761139c-6.696274 0 -11.345581 -2.9991455 -13.947926 -8.997467c-1.2059631 -2.824585 -2.2373772 -4.7605286 -3.0942497 -5.8078613c-0.85686684 -1.0473022 -2.158039 -1.5709839 -3.903513 -1.5709839c-1.9041538 0 -3.4539223 0.62945557 -4.6493073 1.8883667c-1.1848068 1.2483215 -1.7772102 2.6658936 -1.7772102 4.2527466c0 4.7922974 2.3061428 9.425903 6.9184246 13.900818c4.62286 4.4749146 11.599468 6.712372 20.929817 6.712372c8.536957 0 15.270252 -2.0628967 20.199894 -6.1887207c4.9402237 -4.1257935 7.4103317 -9.441742 7.4103317 -15.947845c0 -3.268921 -0.75637054 -6.394989 -2.2691193 -9.378265c-1.5021591 -2.983307 -3.9511185 -5.395294 -7.346855 -7.2360535c-3.3957367 -1.8407288 -8.611004 -3.6021423 -15.645794 -5.28421c-7.024212 -1.6820679 -11.393185 -3.2583313 -13.106922 -4.728821c-1.7137375 -1.4810486 -2.5706062 -3.2054138 -2.5706062 -5.173126c0 -2.4754944 1.1742249 -4.4590454 3.5226822 -5.9506836c2.3484573 -1.4916382 5.2364235 -2.2374573 8.663898 -2.2374573c5.902874 0 10.060276 2.4120178 12.472206 7.236023c1.1107559 2.2850647 2.1104355 3.9142456 2.9990387 4.887512c0.8886032 0.962677 2.1897812 1.4440308 3.9035187 1.4440308c1.8724136 0 3.4116058 -0.69821167 4.617569 -2.094635c1.2059631 -1.3964233 1.8089447 -2.8880615 1.8089447 -4.4749146c0 -3.8084412 -2.0945663 -7.601013 -6.2837067 -11.377716c-4.1891327 -3.776703 -10.40937 -5.6650696 -18.660702 -5.6650696z" fill-rule="evenodd"/><defs><linearGradient id="p.6" gradientUnits="userSpaceOnUse" gradientTransform="matrix(8.496064581537661 0.0 0.0 8.496064581537661 0.0 0.0)" spreadMethod="pad" x1="2.0804829021294737" y1="59.54307466566187" x2="2.078752573686186" y2="68.03913907099815"><stop offset="0.0" stop-color="#d9d2e9"/><stop offset="1.0" stop-color="#f4cccc"/></linearGradient></defs><path fill="url(#p.6)" d="m49.570484 520.7955l10.615654 28.706116l-20.945686 0l10.330032 -28.706116zm0.095207214 -14.900482c-1.9041519 0 -3.6284714 0.4760437 -5.1729507 1.4281616c-1.5339012 0.9520874 -2.6763916 2.1422424 -3.427475 3.570404c-0.7405052 1.4281616 -1.9041557 4.18927 -3.4909477 8.283325l-17.946648 45.320496c-1.3011703 3.2688599 -1.9517555 5.7126465 -1.9517555 7.331238c0 1.5233765 0.6505852 2.946228 1.9517555 4.2686157c1.3011723 1.3117676 2.9038353 1.9677124 4.807989 1.9677124c2.0628319 0 3.5544186 -0.5871582 4.47476 -1.7614136c0.9203396 -1.1742554 2.0628319 -3.5545654 3.427475 -7.140869l3.2846642 -8.759399l28.27668 0l3.427475 8.569031c1.4598541 3.6814575 2.6499481 6.119934 3.5702896 7.3153687c0.9203415 1.1848145 2.4277954 1.7772827 4.5223618 1.7772827c1.9676285 0 3.607315 -0.68237305 4.9190674 -2.047058c1.3223267 -1.364685 1.98349 -2.840454 1.98349 -4.427307c0 -1.5233765 -0.68231964 -4.0147705 -2.0469666 -7.47406l-20.660065 -50.985535c-0.9838104 -2.4437256 -2.3272972 -4.258026 -4.0304565 -5.442871c-1.6925812 -1.1954346 -3.6654968 -1.7931213 -5.918743 -1.7931213z" fill-rule="evenodd"/></g></svg>